<svg xmlns="http://www.w3.org/2000/svg" width="46" height="32.857" viewBox="0 0 46 32.857">
  <path id="iconfinder_back-alt_134226" d="M5.286,19.143H36.829l-7.59-7.59a3.115,3.115,0,0,1-.953-2.267A3.324,3.324,0,0,1,31.571,6a3.1,3.1,0,0,1,2.267.953L46.912,20.027A3.15,3.15,0,0,1,48,22.429a2.979,2.979,0,0,1-1.061,2.377l-13.1,13.1a3.1,3.1,0,0,1-2.267.953,3.323,3.323,0,0,1-3.286-3.286,3.115,3.115,0,0,1,.953-2.267l7.59-7.59H5.286a3.286,3.286,0,1,1,0-6.571Z" transform="translate(-2 -6)" fill="#f06449"/>
</svg>
